<?xml version="1.0" encoding="utf-8"?>
<!-- Generator: Adobe Illustrator 24.1.0, SVG Export Plug-In . SVG Version: 6.00 Build 0)  -->
<svg version="1.1" id="Calque_1" xmlns="http://www.w3.org/2000/svg" xmlns:xlink="http://www.w3.org/1999/xlink" x="0px" y="0px"
	 viewBox="0 0 792 612" style="enable-background:new 0 0 792 612;" xml:space="preserve">
<style type="text/css">
	.st0{fill:#FFFFFF;}
	.st1{fill:#464898;}
</style>
<g>
	<path class="st0" d="M633.72,380.13c-2.41,0-4.37-0.76-5.89-2.28c-1.52-1.52-2.28-3.48-2.28-5.89v-87.5c0-2.53,0.76-4.53,2.28-5.98
		c1.51-1.46,3.48-2.19,5.89-2.19c2.4,0,4.33,0.73,5.79,2.19c1.45,1.45,2.19,3.44,2.19,5.98v87.5c0,2.41-0.73,4.36-2.19,5.89
		C638.05,379.37,636.12,380.13,633.72,380.13z"/>
</g>
<g>
	<path class="st0" d="M184.09,324.74c0.19,4.2-0.11,8.39-1.49,12.57c-2.07,6.27-5.76,11.93-11.07,17
		c-5.31,5.07-11.11,8.47-17.42,10.2c-6.31,1.74-12.57,1.73-18.8-0.02c-6.23-1.76-11.78-5.19-16.68-10.32
		c-4.89-5.12-8.08-10.84-9.54-17.13c-1.47-6.3-1.23-12.61,0.71-18.92c1.93-6.31,5.55-12,10.86-17.07
		c5.31-5.07,11.18-8.44,17.62-10.13c4.3-1.13,8.53-1.2,12.73-0.79l-14.2-14.87c-0.85,0.17-1.7,0.25-2.55,0.46
		c-8.91,2.21-17.08,6.85-24.49,13.93c-7.32,6.99-12.29,14.89-14.91,23.69c-2.62,8.8-2.85,17.63-0.68,26.5
		c2.16,8.86,6.79,17,13.86,24.42c6.99,7.32,14.87,12.27,23.62,14.84c8.76,2.57,17.59,2.76,26.5,0.55
		c8.91-2.21,17.03-6.81,24.35-13.8c7.32-7.17,12.3-15.16,14.92-23.95c0.27-0.89,0.22-1.79,0.44-2.68L184.09,324.74z"/>
</g>
<g>
	<g>
		
			<rect x="154.93" y="293.35" transform="matrix(0.75 -0.6614 0.6614 0.75 -154.3818 190.1182)" class="st1" width="38.75" height="11.86"/>
	</g>
</g>
<g>
	<path class="st0" d="M307.88,374.03c-0.12,1.89-1.13,3.6-3.03,5.12c-1.77,1.52-3.64,2.18-5.6,1.99c-1.96-0.18-3.64-1.16-5.03-2.94
		l-38.16-46.96l-12.71,11.44v29.45c0,2.4-0.73,4.33-2.18,5.78c-1.46,1.46-3.33,2.19-5.6,2.19c-2.41,0-4.34-0.73-5.8-2.19
		c-1.45-1.45-2.17-3.38-2.17-5.78V239.82c0-2.4,0.72-4.34,2.17-5.79c1.46-1.45,3.39-2.18,5.8-2.18c2.27,0,4.14,0.73,5.6,2.18
		c1.45,1.45,2.18,3.39,2.18,5.79v83.31l51.06-46.11c1.64-1.51,3.42-2.21,5.32-2.08c1.89,0.12,3.61,1.01,5.12,2.66
		c1.52,1.64,2.22,3.41,2.09,5.31c-0.13,1.9-1.02,3.54-2.65,4.93L267.44,321l38.55,47.52C307.38,370.29,308.02,372.13,307.88,374.03z
		"/>
</g>
<g>
	<path class="st0" d="M594.85,317.64v54.49c0,2.4-0.73,4.33-2.18,5.78c-1.46,1.46-3.39,2.19-5.8,2.19c-2.4,0-4.36-0.73-5.88-2.19
		c-1.52-1.45-2.27-3.38-2.27-5.78v-54.49c0-8.72-2.22-15.46-6.65-20.21c-4.43-4.74-10.12-7.11-17.08-7.11
		c-7.47,0-13.57,2.49-18.32,7.49c-4.74,5-7.05,11.62-6.93,19.83v54.49c0,2.4-0.76,4.33-2.28,5.78c-1.51,1.46-3.48,2.19-5.88,2.19
		c-2.28,0-4.21-0.73-5.79-2.19c-1.58-1.45-2.37-3.38-2.37-5.78v-54.49c0-8.72-2.22-15.46-6.65-20.21
		c-4.43-4.74-10.13-7.11-17.08-7.11c-7.47,0-13.61,2.46-18.41,7.4c-4.81,4.93-7.22,11.33-7.22,19.17v55.24
		c0,2.4-0.73,4.33-2.18,5.78c-1.45,1.46-3.39,2.19-5.79,2.19c-2.41,0-4.37-0.73-5.88-2.19c-1.52-1.45-2.28-3.38-2.28-5.78v-87.7
		c0-2.4,0.76-4.37,2.28-5.88c1.51-1.53,3.47-2.28,5.88-2.28c2.4,0,4.34,0.75,5.79,2.28c1.45,1.51,2.18,3.48,2.18,5.88v2.74
		c2.38-2.62,5.1-4.86,8.17-6.72c5.81-3.55,12.39-5.33,19.73-5.33c7.34,0,13.87,1.72,19.56,5.13c4.78,2.87,8.7,6.8,11.74,11.77
		c3.3-4.81,7.52-8.68,12.65-11.57c6.26-3.55,13.38-5.33,21.36-5.33c7.33,0,13.85,1.72,19.55,5.13c5.69,3.42,10.12,8.33,13.28,14.72
		C593.27,301.35,594.85,308.92,594.85,317.64z"/>
</g>
<g>
	<path class="st1" d="M633.53,257.47c-3.04,0-5.63-1.07-7.79-3.23c-2.15-2.15-3.22-4.8-3.22-7.97c0-3.16,1.1-5.79,3.32-7.88
		c2.21-2.09,4.84-3.13,7.88-3.13c2.9,0,5.47,1.04,7.69,3.13c2.21,2.09,3.32,4.72,3.32,7.88c0,3.17-1.11,5.82-3.32,7.97
		C639.19,256.4,636.56,257.47,633.53,257.47z"/>
</g>
<g>
	<path class="st0" d="M408.18,286.18c-7.21-7.2-17.84-10.81-31.68-10.81c-12.52,0-22.39,2.47-32.07,6.64
		c-1.9,0.76-3.98,3.04-3.98,6.07c0,3.42,3.03,6.27,6.45,6.27c0.76,0,1.7-0.19,2.65-0.57c7.22-3.23,15.56-5.5,25.43-5.5
		c18.4,0,29.21,9.1,29.21,26.75v5.38c-6.82-8.14-17.05-13.33-28.48-13.33c-20.49,0-37.15,16.66-37.15,37.14
		c0,20.49,16.66,37.15,37.15,37.15c11.15,0,21.16-4.94,27.97-12.74l-0.32,5.51c0,3.8,1.62,6.88,5.79,6.88
		c3.98,0,8.24-2.12,8.24-6.29l0.85-59.9C418.24,302.31,414.82,292.83,408.18,286.18z M375.71,369.5
		c-13.95,0-25.29-11.34-25.29-25.28s11.34-25.28,25.29-25.28c13.93,0,25.27,11.34,25.27,25.28S389.64,369.5,375.71,369.5z"/>
</g>
</svg>
