<?xml version="1.0" encoding="utf-8"?>
<!-- Generator: Adobe Illustrator 24.1.0, SVG Export Plug-In . SVG Version: 6.00 Build 0)  -->
<svg version="1.1" id="Calque_1" xmlns="http://www.w3.org/2000/svg" xmlns:xlink="http://www.w3.org/1999/xlink" x="0px" y="0px"
	 viewBox="0 0 792 612" style="enable-background:new 0 0 792 612;" xml:space="preserve">
<style type="text/css">
	.st0{fill:#FFFFFF;}
	.st1{fill:#101011;}
	.st2{fill:#050606;}
</style>
<g>
	<path class="st0" d="M709.22,392.91c-2.85,0-5.17-0.89-6.96-2.69c-1.8-1.8-2.69-4.11-2.69-6.96V279.83c0-2.99,0.89-5.35,2.69-7.07
		c1.79-1.73,4.11-2.58,6.96-2.58c2.84,0,5.12,0.86,6.84,2.58c1.72,1.72,2.58,4.07,2.58,7.07v103.43c0,2.85-0.87,5.16-2.58,6.96
		S712.06,392.91,709.22,392.91z"/>
</g>
<g>
	<path class="st0" d="M177.75,327.44c0.23,4.96-0.12,9.91-1.76,14.86c-2.44,7.41-6.81,14.1-13.08,20.09
		c-6.27,5.99-13.13,10.02-20.59,12.06c-7.45,2.06-14.86,2.05-22.22-0.03c-7.36-2.07-13.93-6.14-19.72-12.2
		c-5.78-6.05-9.54-12.81-11.27-20.25c-1.73-7.45-1.46-14.91,0.84-22.36c2.28-7.46,6.57-14.18,12.84-20.17
		c6.27-5.99,13.22-9.98,20.83-11.97c5.08-1.34,10.08-1.42,15.05-0.94l-16.78-17.57c-1,0.2-2.01,0.3-3.01,0.55
		c-10.53,2.61-20.19,8.1-28.95,16.47c-8.66,8.27-14.53,17.6-17.62,28c-3.09,10.4-3.37,20.84-0.8,31.33
		c2.55,10.47,8.02,20.1,16.39,28.86c8.27,8.66,17.57,14.5,27.92,17.54c10.35,3.04,20.79,3.26,31.33,0.65
		c10.53-2.61,20.13-8.05,28.78-16.31c8.65-8.48,14.54-17.92,17.64-28.31c0.31-1.05,0.26-2.11,0.51-3.17L177.75,327.44z"/>
</g>
<g>
	<g>
		
			<rect x="143.29" y="290.33" transform="matrix(0.75 -0.6614 0.6614 0.75 -155.1294 184.2681)" class="st1" width="45.8" height="14.02"/>
	</g>
</g>
<g>
	<path class="st0" d="M324.08,385.7c-0.14,2.23-1.34,4.26-3.58,6.05c-2.09,1.8-4.3,2.58-6.62,2.35c-2.32-0.22-4.3-1.37-5.95-3.47
		l-45.1-55.51l-15.02,13.51v34.82c0,2.84-0.87,5.12-2.59,6.84c-1.72,1.72-3.92,2.58-6.62,2.58c-2.84,0-5.12-0.86-6.84-2.58
		c-1.72-1.72-2.58-4-2.58-6.84V227.06c0-2.84,0.86-5.12,2.58-6.84c1.72-1.72,4-2.58,6.84-2.58c2.7,0,4.9,0.86,6.62,2.58
		c1.72,1.72,2.59,4,2.59,6.84v98.48l60.35-54.5c1.94-1.79,4.04-2.61,6.28-2.47c2.24,0.15,4.27,1.2,6.06,3.14
		c1.79,1.95,2.62,4.04,2.47,6.28c-0.16,2.25-1.21,4.19-3.14,5.84l-43.54,39.18l45.56,56.18
		C323.49,381.28,324.24,383.45,324.08,385.7z"/>
</g>
<g>
	<path class="st0" d="M663.28,319.05v64.4c0,2.84-0.87,5.12-2.58,6.84c-1.73,1.72-4,2.58-6.85,2.58c-2.84,0-5.16-0.86-6.95-2.58
		c-1.8-1.72-2.69-4-2.69-6.84v-64.4c0-10.32-2.62-18.28-7.85-23.89c-5.24-5.61-11.97-8.41-20.2-8.41c-8.83,0-16.04,2.95-21.65,8.85
		c-5.44,5.75-8.18,13.29-8.2,22.62c0,0.27,0.01,0.55,0.01,0.83v64.4c0,2.84-0.9,5.12-2.7,6.84c-1.79,1.72-4.11,2.58-6.95,2.58
		c-2.7,0-4.98-0.86-6.84-2.58c-1.87-1.72-2.8-4-2.8-6.84v-64.4c0-10.32-2.62-18.28-7.87-23.89c-5.23-5.61-11.96-8.41-20.18-8.41
		c-8.83,0-16.09,2.91-21.77,8.74c-5.68,5.84-8.52,13.4-8.52,22.66v65.3c0,2.84-0.87,5.12-2.59,6.84c-1.71,1.72-4,2.58-6.83,2.58
		c-2.85,0-5.17-0.86-6.96-2.58c-1.8-1.72-2.69-4-2.69-6.84V279.79c0-2.84,0.89-5.17,2.69-6.95c1.79-1.8,4.11-2.7,6.96-2.7
		c2.83,0,5.12,0.9,6.83,2.7c1.72,1.78,2.59,4.11,2.59,6.95v3.24c2.8-3.1,6.02-5.75,9.65-7.95c6.87-4.19,14.65-6.29,23.32-6.29
		c8.68,0,16.39,2.03,23.12,6.06c5.66,3.4,10.29,8.04,13.87,13.92c3.9-5.7,8.89-10.26,14.96-13.69c7.4-4.19,15.81-6.29,25.24-6.29
		c8.68,0,16.38,2.03,23.11,6.06c6.73,4.04,11.97,9.84,15.7,17.39C661.41,299.79,663.28,308.73,663.28,319.05z"/>
</g>
<g>
	<path class="st2" d="M708.99,247.93c-3.59,0-6.66-1.27-9.2-3.82c-2.54-2.54-3.81-5.68-3.81-9.42c0-3.73,1.31-6.85,3.93-9.31
		c2.61-2.46,5.72-3.7,9.31-3.7c3.43,0,6.46,1.23,9.08,3.7c2.61,2.46,3.93,5.58,3.93,9.31c0,3.74-1.31,6.88-3.93,9.42
		C715.68,246.66,712.58,247.93,708.99,247.93z"/>
</g>
<g>
	<path class="st0" d="M442.63,281.86c-8.52-8.51-21.08-12.78-37.45-12.78c-14.8,0-26.46,2.92-37.9,7.85
		c-2.24,0.9-4.71,3.59-4.71,7.18c0,4.04,3.59,7.4,7.63,7.4c0.9,0,2.01-0.22,3.14-0.67c8.52-3.82,18.38-6.5,30.05-6.5
		c21.75,0,34.53,10.75,34.53,31.61v6.39c-8.05-9.64-20.16-15.78-33.68-15.78c-24.2,0-43.89,19.7-43.89,43.91
		c0,24.2,19.69,43.89,43.89,43.89c13.19,0,25.04-5.84,33.08-15.07l-0.38,6.54c0,4.48,1.91,8.13,6.84,8.13c4.71,0,9.74-2.5,9.74-7.44
		l1-70.79C454.52,300.93,450.48,289.72,442.63,281.86z M404.24,380.34c-16.47,0-29.87-13.4-29.87-29.87
		c0-16.48,13.4-29.88,29.87-29.88c16.48,0,29.88,13.4,29.88,29.88C434.12,366.94,420.72,380.34,404.24,380.34z"/>
</g>
</svg>
